<?xml version="1.0" standalone="no"?>
<!DOCTYPE svg PUBLIC "-//W3C//DTD SVG 20010904//EN"
 "http://www.w3.org/TR/2001/REC-SVG-20010904/DTD/svg10.dtd">
<svg version="1.0" xmlns="http://www.w3.org/2000/svg"
 width="192.000000pt" height="192.000000pt" viewBox="0 0 192.000000 192.000000"
 preserveAspectRatio="xMidYMid meet">

<g transform="translate(0.000000,192.000000) scale(0.100000,-0.100000)"
fill="#000000" stroke="none">
<path d="M564 1657 l-311 -172 -57 -79 -56 -80 0 -330 0 -331 58 -98 57 -97
310 -190 309 -190 69 0 69 0 342 192 342 191 37 101 37 101 0 325 0 326 -48
78 -48 78 -332 174 -332 174 -67 0 -68 -1 -311 -172z m591 -369 c60 -31 78
-49 104 -108 47 -103 15 -247 -67 -303 -58 -40 -86 -47 -198 -47 l-104 0 0
-120 0 -120 -80 0 -80 0 0 358 c0 197 3 362 8 366 4 4 88 6 187 4 171 -3 182
-5 230 -30z"/>
<path d="M890 1070 l0 -122 86 3 c82 4 87 5 115 37 24 26 29 41 29 82 0 41 -5
56 -29 82 -28 32 -33 33 -115 37 l-86 3 0 -122z"/>
</g>
</svg>
